<?xml version="1.0" encoding="utf-8"?>
<?xml-stylesheet type="text/css" href="../css/styles.css"?>
<!DOCTYPE svg PUBLIC "-//W3C//DTD SVG 1.1//EN" "http://www.w3.org/Graphics/SVG/1.1/DTD/svg11.dtd">
<svg version="1.1" id="Layer1" xmlns="http://www.w3.org/2000/svg" xmlns:xlink="http://www.w3.org/1999/xlink" x="0px" y="0px"
	 width="650px" height="90px" viewBox="0 0 650 90" style="enable-background:new 0 0 650 90;" xml:space="preserve">
<path class="letter-path" d="M35.1,57.9c0,10.1-4.6,16-8.4,19.2c-4.6,3.9-11,6-18,6c-1.6,0-3.2-0.1-4.7-0.3V70.9c1.5,0.4,3.1,0.6,4.7,0.6
	c4.3,0,8-1.2,10.6-3.3c2.7-2.3,4.1-5.8,4.1-10.3v-49h11.7V57.9z"/>
<path class="letter-path" d="M86.1,67.2H59.7l-6.3,15.9H40.6L72.9,5.5l32.2,77.6H92.4L86.1,67.2z M81.9,56.8l-9-22.6l-9,22.6H81.9z"/>
<path class="letter-path" d="M126.6,57.8l19.5-48.9h12.6l-31.8,77.5l-34-77.5h12.8L126.6,57.8z"/>
<path class="letter-path" d="M169,83.1V8.9h11.6v74.2H169z"/>
<path class="letter-path" d="M207.6,39.1h27.1v10.5h-27.1v23h32.9v10.5h-33H196V8.9h11.5h33v10.4h-32.9
	V39.1z"/>
<path class="letter-path" d="M306.1,83.1H293L274.3,58h-8.5v25.1h-11.6V8.9h9.8h12.2c9.8,0,15.5,4,18.5,7.4c3.9,4.3,6,10.3,6,17.2c0,6.8-2.1,12.8-6,17.1
	c-1.8,2-4.6,4.3-8.6,5.7L306.1,83.1z M276.2,47.6c4.8,0,8.4-1.4,10.7-4c2.8-3,3.3-7.2,3.3-10.1c0-3-0.5-7.2-3.3-10.2
	c-2.3-2.6-5.9-3.9-10.7-3.9h-10.4v28.2H276.2z"/>
<path class="letter-path" d="M387.6,68.2c-2.1,7.2-8.6,12.9-16.7,14.5c-1.5,0.3-3,0.4-4.5,0.4c-3,0-6-0.5-8.8-1.6c-4.7-1.9-8.8-5-12.3-9.5l9.2-7.2
	c2.1,2.8,4.6,4.8,7.3,5.8c2.2,0.9,4.6,1.1,6.8,0.6c3.8-0.7,6.9-3.2,7.8-6.2c1-3.4-1.3-6.4-3.4-8.4c-3.3-3.1-8.7-8.4-9.1-8.8
	l-9.1-8.6c-2.8-2.7-4.7-5.7-5.7-8.9c-1-3.1-1.1-6.4-0.2-9.4c0.9-3.2,2.8-6,5.5-8.3c2.5-2.1,5.6-3.6,8.9-4.2c3.6-0.8,7.4-0.5,11,0.8
	c3.8,1.5,7.2,4,10.1,7.5l-9.1,7.3c-3.8-4.6-7.7-4.6-9.8-4.2c-2.6,0.5-4.8,2.2-5.4,4.3c-0.4,1.4-0.3,3.7,2.8,6.7l12.4,11.9
	c1.8,1.8,4,3.9,5.6,5.4c3.2,2.9,5.4,6.2,6.5,9.7C388.5,61.2,388.6,64.8,387.6,68.2z"/>
<path class="letter-path" d="M438.2,67.2h-26.4l-6.3,15.9h-12.8L425,5.5l32.2,77.6h-12.7L438.2,67.2z M434,56.8l-9-22.6l-9,22.6H434z"/>
<path class="letter-path" d="M479.1,35.4v47.7h-11.6V5.4l46.6,51.1V8.9h11.7v77.6L479.1,35.4z"/>
<path class="letter-path" d="M589,19.3h-20.4v63.8h-11.7V19.3h-20.4V8.9H589V19.3z"/>
<path class="letter-path" d="M629.7,67.2h-26.4L597,83.1h-12.8l32.3-77.6l32.2,77.6H636L629.7,67.2z M625.5,56.8l-9-22.6l-9,22.6H625.5z"/>
</svg>
